<svg xmlns="http://www.w3.org/2000/svg" viewBox="0 0 800 800"><defs><linearGradient id="lin-gradient1" x1="0" y1="0" x2="100%" y2="100%" gradientUnits="objectBoundingBox"><stop offset="0" stop-color="#77A1D3"></stop> <stop offset="0.5" stop-color="#79CBCA"></stop> <stop offset="1" stop-color="#E684AE"></stop></linearGradient> <linearGradient id="lin-gradient2" x1="0" y1="0" x2="100%" y2="100%" gradientUnits="objectBoundingBox"><stop offset="0" stop-color="#FEAC5E"></stop> <stop offset="0.5" stop-color="#C779D0"></stop> <stop offset="1" stop-color="#4BC0C8"></stop></linearGradient> <radialGradient id="rad-gradient1" x1="50%" y1="50%" x2="10%" y2="10%" gradientUnits="userSpaceOnUse"><stop offset="0" stop-color="#000"></stop> <stop offset="0.3" stop-color="#2529bf"></stop> <stop offset="0.6" stop-color="#e93e3a"></stop> <stop offset="0.7" stop-color="#f3903f"></stop> <stop offset="0.8" stop-color="#fdc70c"></stop> <stop offset="0.9" stop-color="#fff33b"></stop></radialGradient> <radialGradient id="rad-gradient2" x1="50%" y1="50%" x2="10%" y2="10%" gradientUnits="userSpaceOnUse"><stop offset="0" stop-color="#000"></stop> <stop offset="0.3" stop-color="#2529bf"></stop> <stop offset="0.9" stop-color="#5BE2D4"></stop></radialGradient> <radialGradient id="rad-gradient3" x1="50%" y1="50%" x2="10%" y2="10%" gradientUnits="userSpaceOnUse"><stop offset="0" stop-color="#000"></stop> <stop offset="0.6" stop-color="#2529bf"></stop> <stop offset="0.85" stop-color="#e93e3a"></stop> <stop offset="0.93" stop-color="#f3903f"></stop> <stop offset="0.97" stop-color="#fdc70c"></stop> <stop offset="1" stop-color="#fff33b"></stop></radialGradient></defs> <rect x="0" y="0" width="800" height="800"></rect> <g><line x1="400" x2="584" y1="400" y2="208" stroke="url(#rad-gradient2)" stroke-width="3" data-svg-origin="492 304" transform="matrix(1,0,0,1,0,0)" style=""></line><line x1="400" x2="330" y1="400" y2="85" stroke="url(#rad-gradient3)" stroke-width="3" data-svg-origin="365 242.5" transform="matrix(1,0,0,1,0,0)" style=""></line><line x1="400" x2="767" y1="400" y2="356" stroke="url(#rad-gradient3)" stroke-width="3" data-svg-origin="583.5 378" transform="matrix(1,0,0,1,0,0)" style=""></line><line x1="400" x2="794" y1="400" y2="491" stroke="url(#rad-gradient2)" stroke-width="3" data-svg-origin="597 445.5" transform="matrix(1,0,0,1,0,0)" style=""></line><line x1="400" x2="28" y1="400" y2="279" stroke="url(#rad-gradient3)" stroke-width="3" data-svg-origin="214 339.5" transform="matrix(1,0,0,1,0,0)" style=""></line><line x1="400" x2="207" y1="400" y2="366" stroke="url(#rad-gradient2)" stroke-width="3" data-svg-origin="303.5 383" transform="matrix(1,0,0,1,0,0)" style=""></line><line x1="400" x2="519" y1="400" y2="784" stroke="url(#rad-gradient3)" stroke-width="3" data-svg-origin="459.5 592" transform="matrix(1,0,0,1,0,0)" style=""></line><line x1="400" x2="456" y1="400" y2="604" stroke="url(#rad-gradient1)" stroke-width="3" data-svg-origin="428 502" transform="matrix(1,0,0,1,0,0)" style=""></line><line x1="400" x2="62" y1="400" y2="597" stroke="url(#rad-gradient3)" stroke-width="3" data-svg-origin="231 498.5" transform="matrix(1,0,0,1,0,0)" style=""></line><line x1="400" x2="110" y1="400" y2="375" stroke="url(#rad-gradient2)" stroke-width="3" data-svg-origin="255 387.5" transform="matrix(1,0,0,1,0,0)" style=""></line><line x1="400" x2="151" y1="400" y2="284" stroke="url(#rad-gradient2)" stroke-width="3" data-svg-origin="275.5 342" transform="matrix(1,0,0,1,0,0)" style=""></line><line x1="400" x2="590" y1="400" y2="544" stroke="url(#rad-gradient2)" stroke-width="3" data-svg-origin="495 472" transform="matrix(1,0,0,1,0,0)" style=""></line><line x1="400" x2="626" y1="400" y2="560" stroke="url(#rad-gradient1)" stroke-width="3" data-svg-origin="513 480" transform="matrix(1,0,0,1,0,0)" style=""></line><line x1="400" x2="555" y1="400" y2="162" stroke="url(#rad-gradient2)" stroke-width="3" data-svg-origin="477.5 281" transform="matrix(1,0,0,1,0,0)" style=""></line><line x1="400" x2="109" y1="400" y2="399" stroke="url(#rad-gradient1)" stroke-width="3" data-svg-origin="254.5 399.5" transform="matrix(1,0,0,1,0,0)" style=""></line><line x1="400" x2="402" y1="400" y2="263" stroke="url(#rad-gradient1)" stroke-width="3" data-svg-origin="401 331.5" transform="matrix(1,0,0,1,0,0)" style=""></line><line x1="400" x2="753" y1="400" y2="735" stroke="url(#rad-gradient3)" stroke-width="3" data-svg-origin="576.5 567.5" transform="matrix(1,0,0,1,0,0)" style=""></line><line x1="400" x2="456" y1="400" y2="548" stroke="url(#rad-gradient1)" stroke-width="3" data-svg-origin="428 474" transform="matrix(1,0,0,1,0,0)" style=""></line><line x1="400" x2="792" y1="400" y2="687" stroke="url(#rad-gradient1)" stroke-width="3" data-svg-origin="596 543.5" transform="matrix(1,0,0,1,0,0)" style=""></line><line x1="400" x2="622" y1="400" y2="726" stroke="url(#rad-gradient1)" stroke-width="3" data-svg-origin="511 563" transform="matrix(1,0,0,1,0,0)" style=""></line><line x1="400" x2="103" y1="400" y2="730" stroke="url(#rad-gradient2)" stroke-width="3" data-svg-origin="251.5 565" transform="matrix(1,0,0,1,0,0)" style=""></line><line x1="400" x2="421" y1="400" y2="446" stroke="url(#rad-gradient1)" stroke-width="3" data-svg-origin="410.5 423" transform="matrix(1,0,0,1,0,0)" style=""></line><line x1="400" x2="632" y1="400" y2="441" stroke="url(#rad-gradient2)" stroke-width="3" data-svg-origin="516 420.5" transform="matrix(1,0,0,1,0,0)" style=""></line><line x1="400" x2="261" y1="400" y2="324" stroke="url(#rad-gradient1)" stroke-width="3" data-svg-origin="330.5 362" transform="matrix(1,0,0,1,0,0)" style=""></line><line x1="400" x2="675" y1="400" y2="577" stroke="url(#rad-gradient2)" stroke-width="3" data-svg-origin="537.5 488.5" transform="matrix(1,0,0,1,0,0)" style=""></line><line x1="400" x2="488" y1="400" y2="668" stroke="url(#rad-gradient1)" stroke-width="3" data-svg-origin="444 534" transform="matrix(1,0,0,1,0,0)" style=""></line><line x1="400" x2="86" y1="400" y2="465" stroke="url(#rad-gradient1)" stroke-width="3" data-svg-origin="243 432.5" transform="matrix(1,0,0,1,0,0)" style=""></line><line x1="400" x2="479" y1="400" y2="540" stroke="url(#rad-gradient2)" stroke-width="3" data-svg-origin="439.5 470" transform="matrix(1,0,0,1,0,0)" style=""></line><line x1="400" x2="335" y1="400" y2="274" stroke="url(#rad-gradient3)" stroke-width="3" data-svg-origin="367.5 337" transform="matrix(1,0,0,1,0,0)" style=""></line><line x1="400" x2="438" y1="400" y2="505" stroke="url(#rad-gradient1)" stroke-width="3" data-svg-origin="419 452.5" transform="matrix(1,0,0,1,0,0)" style=""></line><line x1="400" x2="0" y1="400" y2="129" stroke="url(#rad-gradient2)" stroke-width="3" data-svg-origin="200 264.5" transform="matrix(1,0,0,1,0,0)" style=""></line><line x1="400" x2="63" y1="400" y2="90" stroke="url(#rad-gradient1)" stroke-width="3" data-svg-origin="231.5 245" transform="matrix(1,0,0,1,0,0)" style=""></line><line x1="400" x2="677" y1="400" y2="655" stroke="url(#rad-gradient1)" stroke-width="3" data-svg-origin="538.5 527.5" transform="matrix(1,0,0,1,0,0)" style=""></line><line x1="400" x2="289" y1="400" y2="55" stroke="url(#rad-gradient2)" stroke-width="3" data-svg-origin="344.5 227.5" transform="matrix(1,0,0,1,0,0)" style=""></line><line x1="400" x2="301" y1="400" y2="604" stroke="url(#rad-gradient3)" stroke-width="3" data-svg-origin="350.5 502" transform="matrix(1,0,0,1,0,0)" style=""></line><line x1="400" x2="78" y1="400" y2="577" stroke="url(#rad-gradient1)" stroke-width="3" data-svg-origin="239 488.5" transform="matrix(1,0,0,1,0,0)" style=""></line><line x1="400" x2="795" y1="400" y2="434" stroke="url(#rad-gradient3)" stroke-width="3" data-svg-origin="597.5 417" transform="matrix(1,0,0,1,0,0)" style=""></line><line x1="400" x2="378" y1="400" y2="619" stroke="url(#rad-gradient2)" stroke-width="3" data-svg-origin="389 509.5" transform="matrix(1,0,0,1,0,0)" style=""></line><line x1="400" x2="194" y1="400" y2="118" stroke="url(#rad-gradient2)" stroke-width="3" data-svg-origin="297 259" transform="matrix(1,0,0,1,0,0)" style=""></line><line x1="400" x2="154" y1="400" y2="358" stroke="url(#rad-gradient3)" stroke-width="3" data-svg-origin="277 379" transform="matrix(1,0,0,1,0,0)" style=""></line><line x1="400" x2="576" y1="400" y2="223" stroke="url(#rad-gradient3)" stroke-width="3" data-svg-origin="488 311.5" transform="matrix(1,0,0,1,0,0)" style=""></line><line x1="400" x2="340" y1="400" y2="72" stroke="url(#rad-gradient3)" stroke-width="3" data-svg-origin="370 236" transform="matrix(1,0,0,1,0,0)" style=""></line><line x1="400" x2="200" y1="400" y2="15" stroke="url(#rad-gradient3)" stroke-width="3" data-svg-origin="300 207.5" transform="matrix(1,0,0,1,0,0)" style=""></line><line x1="400" x2="84" y1="400" y2="682" stroke="url(#rad-gradient2)" stroke-width="3" data-svg-origin="242 541" transform="matrix(1,0,0,1,0,0)" style=""></line><line x1="400" x2="82" y1="400" y2="518" stroke="url(#rad-gradient3)" stroke-width="3" data-svg-origin="241 459" transform="matrix(1,0,0,1,0,0)" style=""></line><line x1="400" x2="183" y1="400" y2="346" stroke="url(#rad-gradient1)" stroke-width="3" data-svg-origin="291.5 373" transform="matrix(1,0,0,1,0,0)" style=""></line><line x1="400" x2="129" y1="400" y2="381" stroke="url(#rad-gradient1)" stroke-width="3" data-svg-origin="264.5 390.5" transform="matrix(1,0,0,1,0,0)" style=""></line><line x1="400" x2="781" y1="400" y2="41" stroke="url(#rad-gradient3)" stroke-width="3" data-svg-origin="590.5 220.5" transform="matrix(1,0,0,1,0,0)" style=""></line><line x1="400" x2="92" y1="400" y2="74" stroke="url(#rad-gradient3)" stroke-width="3" data-svg-origin="246 237" transform="matrix(1,0,0,1,0,0)" style=""></line><line x1="400" x2="119" y1="400" y2="622" stroke="url(#rad-gradient2)" stroke-width="3" data-svg-origin="259.5 511" transform="matrix(1,0,0,1,0,0)" style=""></line><line x1="400" x2="523" y1="400" y2="755" stroke="url(#rad-gradient1)" stroke-width="3" data-svg-origin="461.5 577.5" transform="matrix(1,0,0,1,0,0)" style=""></line><line x1="400" x2="640" y1="400" y2="42" stroke="url(#rad-gradient1)" stroke-width="3" data-svg-origin="520 221" transform="matrix(1,0,0,1,0,0)" style=""></line><line x1="400" x2="782" y1="400" y2="652" stroke="url(#rad-gradient2)" stroke-width="3" data-svg-origin="591 526" transform="matrix(1,0,0,1,0,0)" style=""></line><line x1="400" x2="0" y1="400" y2="438" stroke="url(#rad-gradient2)" stroke-width="3" data-svg-origin="200 419" transform="matrix(1,0,0,1,0,0)" style=""></line><line x1="400" x2="160" y1="400" y2="485" stroke="url(#rad-gradient1)" stroke-width="3" data-svg-origin="280 442.5" transform="matrix(1,0,0,1,0,0)" style=""></line><line x1="400" x2="114" y1="400" y2="533" stroke="url(#rad-gradient3)" stroke-width="3" data-svg-origin="257 466.5" transform="matrix(1,0,0,1,0,0)" style=""></line><line x1="400" x2="57" y1="400" y2="115" stroke="url(#rad-gradient1)" stroke-width="3" data-svg-origin="228.5 257.5" transform="matrix(1,0,0,1,0,0)" style=""></line><line x1="400" x2="47" y1="400" y2="678" stroke="url(#rad-gradient1)" stroke-width="3" data-svg-origin="223.5 539" transform="matrix(1,0,0,1,0,0)" style=""></line><line x1="400" x2="724" y1="400" y2="540" stroke="url(#rad-gradient3)" stroke-width="3" data-svg-origin="562 470" transform="matrix(1,0,0,1,0,0)" style=""></line><line x1="400" x2="642" y1="400" y2="671" stroke="url(#rad-gradient2)" stroke-width="3" data-svg-origin="521 535.5" transform="matrix(1,0,0,1,0,0)" style=""></line><line x1="400" x2="57" y1="400" y2="70" stroke="url(#rad-gradient1)" stroke-width="3" data-svg-origin="228.5 235" transform="matrix(1,0,0,1,0,0)" style=""></line><line x1="400" x2="217" y1="400" y2="26" stroke="url(#rad-gradient1)" stroke-width="3" data-svg-origin="308.5 213" transform="matrix(1,0,0,1,0,0)" style=""></line><line x1="400" x2="470" y1="400" y2="702" stroke="url(#rad-gradient3)" stroke-width="3" data-svg-origin="435 551" transform="matrix(1,0,0,1,0,0)" style=""></line><line x1="400" x2="233" y1="400" y2="209" stroke="url(#rad-gradient1)" stroke-width="3" data-svg-origin="316.5 304.5" transform="matrix(1,0,0,1,0,0)" style=""></line><line x1="400" x2="207" y1="400" y2="330" stroke="url(#rad-gradient2)" stroke-width="3" data-svg-origin="303.5 365" transform="matrix(1,0,0,1,0,0)" style=""></line><line x1="400" x2="67" y1="400" y2="1" stroke="url(#rad-gradient3)" stroke-width="3" data-svg-origin="233.5 200.5" transform="matrix(1,0,0,1,0,0)" style=""></line><line x1="400" x2="353" y1="400" y2="195" stroke="url(#rad-gradient3)" stroke-width="3" data-svg-origin="376.5 297.5" transform="matrix(1,0,0,1,0,0)" style=""></line><line x1="400" x2="358" y1="400" y2="210" stroke="url(#rad-gradient2)" stroke-width="3" data-svg-origin="379 305" transform="matrix(1,0,0,1,0,0)" style=""></line><line x1="400" x2="400" y1="400" y2="172" stroke="url(#rad-gradient1)" stroke-width="3" data-svg-origin="400 286" transform="matrix(1,0,0,1,0,0)" style=""></line><line x1="400" x2="717" y1="400" y2="163" stroke="url(#rad-gradient3)" stroke-width="3" data-svg-origin="558.5 281.5" transform="matrix(1,0,0,1,0,0)" style=""></line><line x1="400" x2="650" y1="400" y2="8" stroke="url(#rad-gradient1)" stroke-width="3" data-svg-origin="525 204" transform="matrix(1,0,0,1,0,0)" style=""></line><line x1="400" x2="454" y1="400" y2="403" stroke="url(#rad-gradient3)" stroke-width="3" data-svg-origin="427 401.5" transform="matrix(1,0,0,1,0,0)" style=""></line><line x1="400" x2="279" y1="400" y2="756" stroke="url(#rad-gradient1)" stroke-width="3" data-svg-origin="339.5 578" transform="matrix(1,0,0,1,0,0)" style=""></line><line x1="400" x2="555" y1="400" y2="195" stroke="url(#rad-gradient1)" stroke-width="3" data-svg-origin="477.5 297.5" transform="matrix(1,0,0,1,0,0)" style=""></line><line x1="400" x2="496" y1="400" y2="727" stroke="url(#rad-gradient3)" stroke-width="3" data-svg-origin="448 563.5" transform="matrix(1,0,0,1,0,0)" style=""></line><line x1="400" x2="516" y1="400" y2="263" stroke="url(#rad-gradient3)" stroke-width="3" data-svg-origin="458 331.5" transform="matrix(1,0,0,1,0,0)" style=""></line><line x1="400" x2="31" y1="400" y2="585" stroke="url(#rad-gradient2)" stroke-width="3" data-svg-origin="215.5 492.5" transform="matrix(1,0,0,1,0,0)" style=""></line><line x1="400" x2="0" y1="400" y2="487" stroke="url(#rad-gradient3)" stroke-width="3" data-svg-origin="200 443.5" transform="matrix(1,0,0,1,0,0)" style=""></line><line x1="400" x2="771" y1="400" y2="92" stroke="url(#rad-gradient3)" stroke-width="3" data-svg-origin="585.5 246" transform="matrix(1,0,0,1,0,0)" style=""></line><line x1="400" x2="762" y1="400" y2="570" stroke="url(#rad-gradient3)" stroke-width="3" data-svg-origin="581 485" transform="matrix(1,0,0,1,0,0)" style=""></line><line x1="400" x2="434" y1="400" y2="81" stroke="url(#rad-gradient2)" stroke-width="3" data-svg-origin="417 240.5" transform="matrix(1,0,0,1,0,0)" style=""></line><line x1="400" x2="286" y1="400" y2="220" stroke="url(#rad-gradient3)" stroke-width="3" data-svg-origin="343 310" transform="matrix(1,0,0,1,0,0)" style=""></line><line x1="400" x2="536" y1="400" y2="297" stroke="url(#rad-gradient2)" stroke-width="3" data-svg-origin="468 348.5" transform="matrix(1,0,0,1,0,0)" style=""></line><line x1="400" x2="77" y1="400" y2="331" stroke="url(#rad-gradient1)" stroke-width="3" data-svg-origin="238.5 365.5" transform="matrix(1,0,0,1,0,0)" style=""></line><line x1="400" x2="304" y1="400" y2="174" stroke="url(#rad-gradient1)" stroke-width="3" data-svg-origin="352 287" transform="matrix(1,0,0,1,0,0)" style=""></line><line x1="400" x2="62" y1="400" y2="243" stroke="url(#rad-gradient3)" stroke-width="3" data-svg-origin="231 321.5" transform="matrix(1,0,0,1,0,0)" style=""></line><line x1="400" x2="84" y1="400" y2="296" stroke="url(#rad-gradient3)" stroke-width="3" data-svg-origin="242 348" transform="matrix(1,0,0,1,0,0)" style=""></line><line x1="400" x2="59" y1="400" y2="312" stroke="url(#rad-gradient2)" stroke-width="3" data-svg-origin="229.5 356" transform="matrix(1,0,0,1,0,0)" style=""></line><line x1="400" x2="153" y1="400" y2="492" stroke="url(#rad-gradient3)" stroke-width="3" data-svg-origin="276.5 446" transform="matrix(1,0,0,1,0,0)" style=""></line><line x1="400" x2="401" y1="400" y2="548" stroke="url(#rad-gradient2)" stroke-width="3" data-svg-origin="400.5 474" transform="matrix(1,0,0,1,0,0)" style=""></line><line x1="400" x2="759" y1="400" y2="776" stroke="url(#rad-gradient2)" stroke-width="3" data-svg-origin="579.5 588" transform="matrix(1,0,0,1,0,0)" style=""></line><line x1="400" x2="521" y1="400" y2="489" stroke="url(#rad-gradient1)" stroke-width="3" data-svg-origin="460.5 444.5" transform="matrix(1,0,0,1,0,0)" style=""></line><line x1="400" x2="80" y1="400" y2="774" stroke="url(#rad-gradient1)" stroke-width="3" data-svg-origin="240 587" transform="matrix(1,0,0,1,0,0)" style=""></line><line x1="400" x2="17" y1="400" y2="744" stroke="url(#rad-gradient1)" stroke-width="3" data-svg-origin="208.5 572" transform="matrix(1,0,0,1,0,0)" style=""></line><line x1="400" x2="322" y1="400" y2="229" stroke="url(#rad-gradient2)" stroke-width="3" data-svg-origin="361 314.5" transform="matrix(1,0,0,1,0,0)" style=""></line><line x1="400" x2="622" y1="400" y2="623" stroke="url(#rad-gradient2)" stroke-width="3" data-svg-origin="511 511.5" transform="matrix(1,0,0,1,0,0)" style=""></line><line x1="400" x2="312" y1="400" y2="61" stroke="url(#rad-gradient2)" stroke-width="3" data-svg-origin="356 230.5" transform="matrix(1,0,0,1,0,0)" style=""></line><line x1="400" x2="312" y1="400" y2="520" stroke="url(#rad-gradient2)" stroke-width="3" data-svg-origin="356 460" transform="matrix(1,0,0,1,0,0)" style=""></line><line x1="400" x2="49" y1="400" y2="90" stroke="url(#rad-gradient1)" stroke-width="3" data-svg-origin="224.5 245" transform="matrix(1,0,0,1,0,0)" style=""></line><line x1="400" x2="368" y1="400" y2="398" stroke="url(#rad-gradient1)" stroke-width="3" data-svg-origin="384 399" transform="matrix(1,0,0,1,0,0)" style=""></line></g> <text x="50%" y="50%" font-family="Helvetica" text-anchor="middle" style="fill: rgb(63, 67, 202); stroke: rgb(215, 239, 236); font-size: 70px;">hi there</text></svg>